<?xml version="1.0" encoding="UTF-8"?>
<svg width="700pt" height="700pt" version="1.1" viewBox="0 0 700 700" xmlns="http://www.w3.org/2000/svg" xmlns:xlink="http://www.w3.org/1999/xlink">
 <defs>
  <symbol id="m" overflow="visible">
   <path d="m37.516-2.25c-1.9297 1.0117-3.9453 1.7734-6.0469 2.2812-2.0938 0.50781-4.2812 0.76562-6.5625 0.76562-6.793 0-12.18-1.8984-16.156-5.7031-3.9688-3.8008-5.9531-8.957-5.9531-15.469 0-6.5195 1.9844-11.68 5.9531-15.484 3.9766-3.8008 9.3633-5.7031 16.156-5.7031 2.2812 0 4.4688 0.25781 6.5625 0.76562 2.1016 0.51172 4.1172 1.2656 6.0469 2.2656v8.4531c-1.9492-1.332-3.8711-2.3047-5.7656-2.9219-1.8984-0.625-3.8906-0.9375-5.9844-0.9375-3.7617 0-6.7188 1.2031-8.875 3.6094-2.1484 2.4062-3.2188 5.7266-3.2188 9.9531 0 4.2109 1.0703 7.5156 3.2188 9.9219 2.1562 2.4062 5.1133 3.6094 8.875 3.6094 2.0938 0 4.0859-0.30469 5.9844-0.92188 1.8945-0.625 3.8164-1.5977 5.7656-2.9219z"/>
  </symbol>
  <symbol id="c" overflow="visible">
   <path d="m27.453-22.281c-0.85547-0.40625-1.7109-0.70312-2.5625-0.89062-0.84375-0.19531-1.6953-0.29688-2.5469-0.29688-2.5234 0-4.4609 0.80859-5.8125 2.4219-1.3555 1.6172-2.0312 3.9297-2.0312 6.9375v14.109h-9.7969v-30.625h9.7969v5.0312c1.25-2.0078 2.6914-3.4727 4.3281-4.3906 1.6328-0.91406 3.5859-1.375 5.8594-1.375 0.33203 0 0.6875 0.015625 1.0625 0.046875 0.38281 0.023438 0.94141 0.078125 1.6719 0.17188z"/>
  </symbol>
  <symbol id="b" overflow="visible">
   <path d="m35.281-15.391v2.7812h-22.891c0.23828 2.3047 1.0664 4.0273 2.4844 5.1719 1.4258 1.1484 3.4141 1.7188 5.9688 1.7188 2.0508 0 4.1562-0.30078 6.3125-0.90625 2.1641-0.61328 4.3906-1.5391 6.6719-2.7812v7.5469c-2.3125 0.875-4.6328 1.5391-6.9531 1.9844-2.3125 0.44531-4.625 0.67188-6.9375 0.67188-5.543 0-9.8516-1.4062-12.922-4.2188-3.0742-2.8203-4.6094-6.7734-4.6094-11.859 0-5 1.5039-8.9258 4.5156-11.781 3.0195-2.8633 7.1758-4.2969 12.469-4.2969 4.8125 0 8.6602 1.4492 11.547 4.3438 2.8945 2.8984 4.3438 6.7734 4.3438 11.625zm-10.062-3.2656c0-1.8516-0.54688-3.3477-1.6406-4.4844-1.0859-1.1445-2.5-1.7188-4.25-1.7188-1.8984 0-3.4375 0.53906-4.625 1.6094-1.1797 1.0625-1.9141 2.5938-2.2031 4.5938z"/>
  </symbol>
  <symbol id="i" overflow="visible">
   <path d="m18.438-13.781c-2.043 0-3.5781 0.35156-4.6094 1.0469-1.0312 0.6875-1.5469 1.7031-1.5469 3.0469 0 1.2422 0.41016 2.2148 1.2344 2.9219 0.83203 0.69922 1.9883 1.0469 3.4688 1.0469 1.8438 0 3.3906-0.66016 4.6406-1.9844 1.2578-1.3203 1.8906-2.9727 1.8906-4.9531v-1.125zm14.953-3.6875v17.469h-9.875v-4.5469c-1.3125 1.8672-2.793 3.2266-4.4375 4.0781-1.6367 0.84375-3.6328 1.2656-5.9844 1.2656-3.168 0-5.7422-0.92578-7.7188-2.7812-1.9805-1.8516-2.9688-4.2539-2.9688-7.2031 0-3.5938 1.2344-6.2266 3.7031-7.9062 2.4688-1.6758 6.3477-2.5156 11.641-2.5156h5.7656v-0.76562c0-1.5508-0.60938-2.6875-1.8281-3.4062s-3.125-1.0781-5.7188-1.0781c-2.0938 0-4.0469 0.21484-5.8594 0.64062-1.8047 0.41797-3.4766 1.043-5.0156 1.875v-7.4688c2.0938-0.50781 4.1953-0.89453 6.3125-1.1562 2.1133-0.25781 4.2266-0.39062 6.3438-0.39062 5.5195 0 9.5039 1.0898 11.953 3.2656 2.457 2.1797 3.6875 5.7188 3.6875 10.625z"/>
  </symbol>
  <symbol id="a" overflow="visible">
   <path d="m15.391-39.328v8.7031h10.094v7h-10.094v12.984c0 1.4297 0.28125 2.3906 0.84375 2.8906 0.57031 0.5 1.6953 0.75 3.375 0.75h5.0312v7h-8.3906c-3.8672 0-6.6055-0.80469-8.2188-2.4219-1.6172-1.6133-2.4219-4.3516-2.4219-8.2188v-12.984h-4.875v-7h4.875v-8.7031z"/>
  </symbol>
  <symbol id="h" overflow="visible">
   <path d="m25.547-26.141v-16.406h9.8438v42.547h-9.8438v-4.4375c-1.3555 1.8125-2.8438 3.1406-4.4688 3.9844-1.6172 0.83203-3.4922 1.25-5.625 1.25-3.7734 0-6.8711-1.5-9.2969-4.5-2.4297-3-3.6406-6.8594-3.6406-11.578 0-4.7266 1.2109-8.5859 3.6406-11.578 2.4258-3 5.5234-4.5 9.2969-4.5 2.1133 0 3.9844 0.42188 5.6094 1.2656 1.6328 0.84375 3.1289 2.1641 4.4844 3.9531zm-6.4531 19.828c2.0938 0 3.6914-0.76562 4.7969-2.2969 1.1016-1.5312 1.6562-3.7539 1.6562-6.6719 0-2.9141-0.55469-5.1406-1.6562-6.6719-1.1055-1.5312-2.7031-2.2969-4.7969-2.2969-2.0859 0-3.6797 0.76562-4.7812 2.2969-1.1055 1.5312-1.6562 3.7578-1.6562 6.6719 0 2.918 0.55078 5.1406 1.6562 6.6719 1.1016 1.5312 2.6953 2.2969 4.7812 2.2969z"/>
  </symbol>
  <symbol id="g" overflow="visible">
   <path d="m21-6.3125c2.0938 0 3.6914-0.76562 4.7969-2.2969 1.1016-1.5312 1.6562-3.7539 1.6562-6.6719 0-2.9141-0.55469-5.1406-1.6562-6.6719-1.1055-1.5312-2.7031-2.2969-4.7969-2.2969s-3.7031 0.77344-4.8281 2.3125c-1.1172 1.5312-1.6719 3.75-1.6719 6.6562 0 2.8984 0.55469 5.1172 1.6719 6.6562 1.125 1.543 2.7344 2.3125 4.8281 2.3125zm-6.5-19.828c1.3438-1.7891 2.832-3.1094 4.4688-3.9531 1.6445-0.84375 3.5352-1.2656 5.6719-1.2656 3.7695 0 6.8672 1.5 9.2969 4.5 2.4258 2.9922 3.6406 6.8516 3.6406 11.578 0 4.7188-1.2148 8.5781-3.6406 11.578-2.4297 3-5.5273 4.5-9.2969 4.5-2.1367 0-4.0273-0.42188-5.6719-1.2656-1.6367-0.85156-3.125-2.1758-4.4688-3.9688v4.4375h-9.7969v-42.547h9.7969z"/>
  </symbol>
  <symbol id="f" overflow="visible">
   <path d="m0.6875-30.625h9.7812l8.2344 20.781 7-20.781h9.7969l-12.891 33.531c-1.293 3.4062-2.8047 5.7852-4.5312 7.1406-1.7188 1.3633-3.9922 2.0469-6.8125 2.0469h-5.6562v-6.4375h3.0625c1.6562 0 2.8594-0.26562 3.6094-0.79688 0.75781-0.52344 1.3516-1.4648 1.7812-2.8281l0.26562-0.85938z"/>
  </symbol>
  <symbol id="e" overflow="visible">
   <path d="m5.1406-40.828h28.406v7.9531h-17.875v7.6094h16.812v7.9531h-16.812v17.312h-10.531z"/>
  </symbol>
  <symbol id="d" overflow="visible">
   <path d="m4.375-11.922v-18.703h9.8438v3.0625c0 1.6562-0.011719 3.7422-0.03125 6.25-0.011719 2.5-0.015625 4.1719-0.015625 5.0156 0 2.4609 0.0625 4.2305 0.1875 5.3125 0.125 1.0859 0.34375 1.875 0.65625 2.375 0.39453 0.63672 0.91406 1.125 1.5625 1.4688 0.65625 0.34375 1.3984 0.51562 2.2344 0.51562 2.0391 0 3.6445-0.78125 4.8125-2.3438 1.1641-1.5703 1.75-3.75 1.75-6.5312v-15.125h9.7969v30.625h-9.7969v-4.4375c-1.4805 1.793-3.043 3.1172-4.6875 3.9688-1.6484 0.84375-3.4648 1.2656-5.4531 1.2656-3.543 0-6.2422-1.082-8.0938-3.25-1.8438-2.1758-2.7656-5.332-2.7656-9.4688zm7.0156-31.422h6.4219v6.7344h-6.4219zm10.797 0h6.4219v6.7344h-6.4219z"/>
  </symbol>
  <symbol id="l" overflow="visible">
   <path d="m35.5-18.656v18.656h-9.8438v-14.219c0-2.6758-0.0625-4.5156-0.1875-5.5156-0.11719-1.0078-0.32031-1.75-0.60938-2.2188-0.38672-0.64453-0.90625-1.1445-1.5625-1.5-0.65625-0.35156-1.4023-0.53125-2.2344-0.53125-2.043 0-3.6484 0.79297-4.8125 2.375-1.168 1.5742-1.75 3.7578-1.75 6.5469v15.062h-9.7969v-42.547h9.7969v16.406c1.4688-1.7891 3.0312-3.1094 4.6875-3.9531 1.6641-0.84375 3.5-1.2656 5.5-1.2656 3.5391 0 6.2266 1.0859 8.0625 3.25 1.832 2.168 2.75 5.3203 2.75 9.4531z"/>
  </symbol>
  <symbol id="k" overflow="visible">
   <path d="m28.625-29.672v7.4375c-2.0938-0.875-4.1172-1.5312-6.0625-1.9688-1.9492-0.4375-3.793-0.65625-5.5312-0.65625-1.8555 0-3.2344 0.23438-4.1406 0.70312-0.89844 0.46094-1.3438 1.1719-1.3438 2.1406 0 0.78125 0.33594 1.3867 1.0156 1.8125 0.6875 0.41797 1.9141 0.72656 3.6875 0.92188l1.7188 0.25c5.0078 0.63672 8.3789 1.6836 10.109 3.1406 1.7383 1.4609 2.6094 3.7461 2.6094 6.8594 0 3.2734-1.2031 5.7305-3.6094 7.375-2.4062 1.6367-6 2.4531-10.781 2.4531-2.0234 0-4.1172-0.16406-6.2812-0.48438-2.1562-0.32031-4.375-0.80078-6.6562-1.4375v-7.4375c1.957 0.94922 3.957 1.6641 6 2.1406 2.0508 0.46875 4.1328 0.70312 6.25 0.70312 1.9141 0 3.3594-0.25781 4.3281-0.78125 0.96875-0.53125 1.4531-1.3164 1.4531-2.3594 0-0.875-0.33594-1.5234-1-1.9531-0.66797-0.42578-1.9961-0.75781-3.9844-1l-1.7188-0.21875c-4.3555-0.55078-7.4062-1.5625-9.1562-3.0312-1.75-1.4766-2.625-3.7227-2.625-6.7344 0-3.2383 1.1094-5.6406 3.3281-7.2031 2.2266-1.5703 5.6406-2.3594 10.234-2.3594 1.8008 0 3.6914 0.13672 5.6719 0.40625 1.9883 0.27344 4.1484 0.69922 6.4844 1.2812z"/>
  </symbol>
  <symbol id="j" overflow="visible">
   <path d="m29.453-29.672v7.9844c-1.3359-0.90625-2.6719-1.5781-4.0156-2.0156-1.3359-0.4375-2.7188-0.65625-4.1562-0.65625-2.7422 0-4.8711 0.79688-6.3906 2.3906-1.5234 1.5938-2.2812 3.8242-2.2812 6.6875 0 2.8555 0.75781 5.0859 2.2812 6.6875 1.5195 1.5938 3.6484 2.3906 6.3906 2.3906 1.5312 0 2.9844-0.22656 4.3594-0.6875 1.375-0.45703 2.6445-1.1328 3.8125-2.0312v8.0156c-1.5312 0.5625-3.0898 0.98438-4.6719 1.2656-1.5742 0.28906-3.1523 0.4375-4.7344 0.4375-5.5234 0-9.8438-1.4141-12.969-4.25-3.1172-2.8438-4.6719-6.7852-4.6719-11.828 0-5.0508 1.5547-8.9922 4.6719-11.828 3.125-2.832 7.4453-4.25 12.969-4.25 1.6016 0 3.1797 0.14062 4.7344 0.42188 1.5625 0.28125 3.1172 0.70312 4.6719 1.2656z"/>
  </symbol>
 </defs>
 <g>
  <path d="m270.49 252.41c-24.371 0-44.129 19.758-44.129 44.129 0.0625 24.344 19.781 44.066 44.129 44.129 24.371 0 44.129-19.758 44.129-44.129-0.003906-24.371-19.758-44.129-44.129-44.129zm0 77.059c-18.188 0-32.93-14.742-32.93-32.93-0.0625-18.188 14.629-32.977 32.816-33.039h0.11328v0.11328c18.188 0 32.93 14.742 32.93 32.93-0.003906 18.184-14.746 32.926-32.93 32.926z"/>
  <path d="m270.49 227.78c-37.918 0-68.656 30.738-68.656 68.656 0 37.918 30.738 68.656 68.656 68.656 37.918 0 68.656-30.738 68.656-68.656 0-37.918-30.742-68.656-68.656-68.656zm0 124.65c-30.93 0-56-25.07-56-56-0.30859-30.926 22.715-56.117 56-56.559 29.176-0.39062 56 25.633 56 56.559 0 30.93-25.074 56-56 56z"/>
  <path d="m434.68 249.62c-25.855 0-46.816 20.961-46.816 46.816 0.0625 25.832 20.984 46.754 46.816 46.816 25.855 0 46.816-20.961 46.816-46.816 0-25.859-20.961-46.816-46.816-46.816zm0 82.43c-19.672 0-35.617-15.945-35.617-35.617 0-19.668 15.945-35.617 35.617-35.617 19.668 0 35.617 15.945 35.617 35.617 0 19.672-15.949 35.617-35.617 35.617z"/>
  <path d="m434.68 227.66c-37.918 0-68.656 30.738-68.656 68.656v0.11328c0 37.855 30.688 68.543 68.543 68.543h0.11328c37.918 0 68.656-30.738 68.656-68.656 0-37.918-30.738-68.656-68.656-68.656zm-0.10547 125c-30.93 0-55.898-25.637-55.898-56.566-0.92578-55.977 56-56 56-56 30.93 0 56 25.07 56 56 0.003906 30.93-25.172 56.566-56.102 56.566z"/>
  <path d="m592.83 259.47h-0.11328-14v-5.4883c0-49.504-43.902-89.602-97.887-89.602h-94.977v-5.6016c0-12.371-10.027-22.398-22.398-22.398h-17.695v-14.449c0.003907-2.1406-1.2148-4.0977-3.1367-5.0391l-7.7266-3.6953 32.031-6.0469c2.5508-0.50391 4.4375-2.668 4.5898-5.2656 0.15625-2.5508-1.4688-4.875-3.918-5.6016l-23.859-7.3906v-5.0391c21.238-3.0938 35.949-22.816 32.859-44.059-3.0938-21.238-22.816-35.953-44.059-32.859-21.238 3.0938-35.953 22.816-32.859 44.059 2.4766 17.016 15.844 30.379 32.859 32.859v9.2969c-0.003906 2.4297 1.5938 4.5703 3.918 5.2617l6.2734 1.9023-26.879 5.1523c-3.0312 0.60938-4.9961 3.5586-4.3867 6.5938 0.34375 1.7148 1.4688 3.1719 3.043 3.9336l19.938 9.5195v10.527h-15.121c-12.371 0-22.398 10.027-22.398 22.398v5.6016h-73.695c-53.871 0-97.777 40.207-97.777 89.602v5.8242l-14.34 0.003906c-12.371-0.0625-22.449 9.918-22.512 22.289v0.22656 88.816c0 12.371 10.027 22.398 22.398 22.398h14.621c1.8281 47.934 44.887 86.465 97.602 86.465h58.688c1.3594 0.03125 3.0312 1.6875 2.2383 3.3594-8.1758 19.375-24.863 33.602-32.594 44.801-8.5078 13.5 4.6133 18.273 12.434 15.23 38.895-10.293 73.762-32.121 100.02-62.609 0.33203-0.53516 0.9375-0.83594 1.5664-0.78516h115.25c52.5 0 94.984-38.051 97.789-85.547 0.023437-0.37109 0.097656-0.80859 0.097656-0.80859h14c12.371 0 22.398-10.027 22.398-22.398l0.007812-88.926c0.0625-12.371-9.9141-22.449-22.285-22.512zm-254.8-189.62c-13.422 0-24.305-10.883-24.305-24.305s10.879-24.305 24.305-24.305c13.422 0 24.305 10.883 24.305 24.305s-10.883 24.305-24.305 24.305zm-26.656 88.816c0-4.3906 3.5586-7.9531 7.9531-7.9531h44.016c4.3906 0 7.9531 3.5625 7.9531 7.9531v5.6016h-59.918zm-208.21 212.13v-88.816c0-4.3906 3.5586-7.9531 7.9531-7.9531h14.336v104.72h-14.34c-4.3906 0.003906-7.9492-3.5586-7.9492-7.9492zm460.88 19.262c0 42.113-37.297 76.273-83.215 76.273h-118.39c-4.3984-0.082032-8.5664 1.9609-11.199 5.4883-7.8398 10.641-29.902 34.832-79.855 55.441-0.87891 0.30078-1.832-0.16797-2.1328-1.0469-0.17578-0.51562-0.089844-1.0898 0.23047-1.5312 33.602-39.086 33.602-53.199 32.48-56.895-0.62891-0.90234-1.6016-1.5117-2.6875-1.6797h-76.719c-45.922 0-83.215-33.602-83.215-76.273v-24.977l10.414 13.105c11.695 14.855 29.59 23.492 48.496 23.406h304.42c19.441-0.035156 37.754-9.1484 49.504-24.641l11.871-15.793zm0.11328-47.598-20.609 27.328c-9.6445 12.656-24.629 20.109-40.543 20.16h-304.08c-15.477 0-30.113-7.0508-39.762-19.152l-19.152-23.855 0.003907-92.961c0-42.113 37.297-76.383 83.215-76.383h257.6c45.918 0 83.328 34.273 83.328 76.383zm36.512 28.336c0 4.3906-3.5586 7.9531-7.9531 7.9531h-14v-104.72h14c4.3906 0 7.9531 3.5586 7.9531 7.9531z"/>
  <path d="m364.91 415.49h-40.992c-3.0938 0-5.6016 2.5078-5.6016 5.6016s2.5078 5.6016 5.6016 5.6016h40.992c3.0938 0 5.6016-2.5078 5.6016-5.6016s-2.5078-5.6016-5.6016-5.6016z"/>
  <path d="m209 231.25c5.7578-6.9219 13.625-11.762 22.398-13.777 3.8984-0.98828 6.2539-4.9531 5.2656-8.8477-0.99219-3.9023-4.9258-6.293-8.8477-5.375-11.723 2.918-22.199 9.5117-29.902 18.816-2.4883 3.1289-1.9883 7.6797 1.1211 10.191 1.2227 1.0391 2.7656 1.6328 4.3672 1.6797 2.1797 0.019531 4.2461-0.97266 5.5977-2.6875z"/>
  <path d="m480.04 203.25c-3.9219-0.91797-7.8555 1.4727-8.8477 5.375-1.0039 3.8281 1.2344 7.7578 5.0391 8.8477 8.7852 1.9844 16.664 6.8281 22.398 13.777 2.8516 2.832 7.4609 2.8164 10.297-0.039063 2.4297-2.4492 2.8086-6.2695 0.90625-9.1445-7.6484-9.3125-18.098-15.91-29.793-18.816z"/>
  <use x="70" y="728" xlink:href="#m"/>
  <use x="111.097656" y="728" xlink:href="#c"/>
  <use x="138.714844" y="728" xlink:href="#b"/>
  <use x="176.695312" y="728" xlink:href="#i"/>
  <use x="214.484375" y="728" xlink:href="#a"/>
  <use x="241.253906" y="728" xlink:href="#b"/>
  <use x="279.234375" y="728" xlink:href="#h"/>
  <use x="338.816406" y="728" xlink:href="#g"/>
  <use x="378.902344" y="728" xlink:href="#f"/>
  <use x="434.902344" y="728" xlink:href="#e"/>
  <use x="473.15625" y="728" xlink:href="#c"/>
  <use x="500.773438" y="728" xlink:href="#d"/>
  <use x="540.640625" y="728" xlink:href="#l"/>
  <use x="580.507812" y="728" xlink:href="#k"/>
  <use x="613.839844" y="728" xlink:href="#a"/>
  <use x="640.609375" y="728" xlink:href="#d"/>
  <use x="680.476562" y="728" xlink:href="#j"/>
 </g>
</svg>
